<?xml version="1.0" encoding="UTF-8"?>
<!DOCTYPE svg PUBLIC "-//W3C//DTD SVG 1.1//EN" "http://www.w3.org/Graphics/SVG/1.1/DTD/svg11.dtd">
<svg xmlns="http://www.w3.org/2000/svg" xmlns:xlink="http://www.w3.org/1999/xlink" version="1.1" width="1418px" height="1584px" viewBox="-0.5 -0.5 1418 1584"><defs/><g><rect x="32" y="11" width="1350" height="300" fill="#404040" stroke="#8a8a8a" stroke-width="3" pointer-events="all"/><rect x="32" y="311" width="1350" height="525" fill="#190e78" stroke="#2800f2" stroke-width="4" pointer-events="all"/><path d="M 1259.5 141 L 1319.5 161 L 1259.5 181 L 1199.5 161 Z" fill="#5a45e0" stroke="#5f0d78" stroke-width="3" stroke-miterlimit="10" transform="rotate(90,1259.5,161)" pointer-events="all"/><path d="M 1121.5 141 L 1181.5 161 L 1121.5 181 L 1061.5 161 Z" fill="#5a45e0" stroke="#5f0d78" stroke-width="3" stroke-miterlimit="10" transform="rotate(90,1121.5,161)" pointer-events="all"/><path d="M 983.5 141 L 1043.5 161 L 983.5 181 L 923.5 161 Z" fill="#5a45e0" stroke="#5f0d78" stroke-width="3" stroke-miterlimit="10" transform="rotate(90,983.5,161)" pointer-events="all"/><path d="M 845.5 141 L 905.5 161 L 845.5 181 L 785.5 161 Z" fill="#5a45e0" stroke="#5f0d78" stroke-width="3" stroke-miterlimit="10" transform="rotate(90,845.5,161)" pointer-events="all"/><path d="M 706.5 141 L 766.5 161 L 706.5 181 L 646.5 161 Z" fill="#5a45e0" stroke="#5f0d78" stroke-width="3" stroke-miterlimit="10" transform="rotate(90,706.5,161)" pointer-events="all"/><path d="M 568.5 141 L 628.5 161 L 568.5 181 L 508.5 161 Z" fill="#5a45e0" stroke="#5f0d78" stroke-width="3" stroke-miterlimit="10" transform="rotate(90,568.5,161)" pointer-events="all"/><path d="M 430.5 141 L 490.5 161 L 430.5 181 L 370.5 161 Z" fill="#5a45e0" stroke="#5f0d78" stroke-width="3" stroke-miterlimit="10" transform="rotate(90,430.5,161)" pointer-events="all"/><path d="M 292.5 141 L 352.5 161 L 292.5 181 L 232.5 161 Z" fill="#5a45e0" stroke="#5f0d78" stroke-width="3" stroke-miterlimit="10" transform="rotate(90,292.5,161)" pointer-events="all"/><path d="M 154.5 141 L 214.5 161 L 154.5 181 L 94.5 161 Z" fill="#5a45e0" stroke="#5f0d78" stroke-width="3" stroke-miterlimit="10" transform="rotate(90,154.5,161)" pointer-events="all"/><path d="M 313 488 L 373 508 L 313 528 L 253 508 Z" fill="#5a45e0" stroke="#5f0d78" stroke-width="3" stroke-miterlimit="10" pointer-events="all"/><path d="M 509.5 488 L 569.5 508 L 509.5 528 L 449.5 508 Z" fill="#5a45e0" stroke="#5f0d78" stroke-width="3" stroke-miterlimit="10" pointer-events="all"/><path d="M 706.5 488 L 766.5 508 L 706.5 528 L 646.5 508 Z" fill="#5a45e0" stroke="#5f0d78" stroke-width="3" stroke-miterlimit="10" pointer-events="all"/><path d="M 903.5 488 L 963.5 508 L 903.5 528 L 843.5 508 Z" fill="#5a45e0" stroke="#5f0d78" stroke-width="3" stroke-miterlimit="10" pointer-events="all"/><path d="M 1100 488 L 1160 508 L 1100 528 L 1040 508 Z" fill="#5a45e0" stroke="#5f0d78" stroke-width="3" stroke-miterlimit="10" pointer-events="all"/><path d="M 313 681 L 373 701 L 313 721 L 253 701 Z" fill="#5a45e0" stroke="#5f0d78" stroke-width="3" stroke-miterlimit="10" pointer-events="all"/><path d="M 509.5 681 L 569.5 701 L 509.5 721 L 449.5 701 Z" fill="#5a45e0" stroke="#5f0d78" stroke-width="3" stroke-miterlimit="10" pointer-events="all"/><path d="M 706.5 681 L 766.5 701 L 706.5 721 L 646.5 701 Z" fill="#5a45e0" stroke="#5f0d78" stroke-width="3" stroke-miterlimit="10" pointer-events="all"/><path d="M 903.5 681 L 963.5 701 L 903.5 721 L 843.5 701 Z" fill="#5a45e0" stroke="#5f0d78" stroke-width="3" stroke-miterlimit="10" pointer-events="all"/><path d="M 1100 681 L 1160 701 L 1100 721 L 1040 701 Z" fill="#5a45e0" stroke="#5f0d78" stroke-width="3" stroke-miterlimit="10" pointer-events="all"/><path d="M 215.5 584 L 275.5 604 L 215.5 624 L 155.5 604 Z" fill="#5a45e0" stroke="#5f0d78" stroke-width="3" stroke-miterlimit="10" pointer-events="all"/><path d="M 412.5 584 L 472.5 604 L 412.5 624 L 352.5 604 Z" fill="#5a45e0" stroke="#5f0d78" stroke-width="3" stroke-miterlimit="10" pointer-events="all"/><path d="M 609.5 584 L 669.5 604 L 609.5 624 L 549.5 604 Z" fill="#5a45e0" stroke="#5f0d78" stroke-width="3" stroke-miterlimit="10" pointer-events="all"/><path d="M 805.5 584 L 865.5 604 L 805.5 624 L 745.5 604 Z" fill="#5a45e0" stroke="#5f0d78" stroke-width="3" stroke-miterlimit="10" pointer-events="all"/><path d="M 1002.5 584 L 1062.5 604 L 1002.5 624 L 942.5 604 Z" fill="#5a45e0" stroke="#5f0d78" stroke-width="3" stroke-miterlimit="10" pointer-events="all"/><path d="M 1199.5 584 L 1259.5 604 L 1199.5 624 L 1139.5 604 Z" fill="#5a45e0" stroke="#5f0d78" stroke-width="3" stroke-miterlimit="10" pointer-events="all"/><rect x="1104.5" y="971" width="300" height="600" fill="#404040" stroke="#cccccc" stroke-width="5" transform="translate(1254.5,0)scale(-1,1)translate(-1254.5,0)" pointer-events="all"/><rect x="1104.5" y="971" width="170" height="600" fill="#404040" stroke="#cccccc" stroke-width="5" transform="translate(1189.5,0)scale(-1,1)translate(-1189.5,0)" pointer-events="all"/><rect x="1274.5" y="971" width="130" height="160" fill="#404040" stroke="#cccccc" stroke-width="5" transform="translate(1339.5,0)scale(-1,1)translate(-1339.5,0)" pointer-events="all"/><rect x="1274.5" y="1191" width="130" height="160" fill="#404040" stroke="#cccccc" stroke-width="5" transform="translate(1339.5,0)scale(-1,1)translate(-1339.5,0)" pointer-events="all"/><rect x="1274.5" y="1411" width="130" height="160" fill="#404040" stroke="#cccccc" stroke-width="5" transform="translate(1339.5,0)scale(-1,1)translate(-1339.5,0)" pointer-events="all"/><rect x="32" y="11" width="1350" height="300" fill="#404040" stroke="#8a8a8a" stroke-width="3" pointer-events="all"/><rect x="32" y="311" width="1350" height="525" fill="#190e78" stroke="#2800f2" stroke-width="4" pointer-events="all"/><path d="M 154.5 141 L 214.5 161 L 154.5 181 L 94.5 161 Z" fill="#5a45e0" stroke="#5f0d78" stroke-width="3" stroke-miterlimit="10" transform="rotate(90,154.5,161)" pointer-events="none"/><path d="M 292.5 141 L 352.5 161 L 292.5 181 L 232.5 161 Z" fill="#5a45e0" stroke="#5f0d78" stroke-width="3" stroke-miterlimit="10" transform="rotate(90,292.5,161)" pointer-events="none"/><path d="M 430.5 141 L 490.5 161 L 430.5 181 L 370.5 161 Z" fill="#5a45e0" stroke="#5f0d78" stroke-width="3" stroke-miterlimit="10" transform="rotate(90,430.5,161)" pointer-events="none"/><path d="M 568.5 141 L 628.5 161 L 568.5 181 L 508.5 161 Z" fill="#5a45e0" stroke="#5f0d78" stroke-width="3" stroke-miterlimit="10" transform="rotate(90,568.5,161)" pointer-events="none"/><path d="M 707.5 141 L 767.5 161 L 707.5 181 L 647.5 161 Z" fill="#5a45e0" stroke="#5f0d78" stroke-width="3" stroke-miterlimit="10" transform="rotate(90,707.5,161)" pointer-events="none"/><path d="M 845.5 141 L 905.5 161 L 845.5 181 L 785.5 161 Z" fill="#5a45e0" stroke="#5f0d78" stroke-width="3" stroke-miterlimit="10" transform="rotate(90,845.5,161)" pointer-events="none"/><path d="M 983.5 141 L 1043.5 161 L 983.5 181 L 923.5 161 Z" fill="#5a45e0" stroke="#5f0d78" stroke-width="3" stroke-miterlimit="10" transform="rotate(90,983.5,161)" pointer-events="none"/><path d="M 1121.5 141 L 1181.5 161 L 1121.5 181 L 1061.5 161 Z" fill="#5a45e0" stroke="#5f0d78" stroke-width="3" stroke-miterlimit="10" transform="rotate(90,1121.5,161)" pointer-events="none"/><path d="M 1259.5 141 L 1319.5 161 L 1259.5 181 L 1199.5 161 Z" fill="#5a45e0" stroke="#5f0d78" stroke-width="3" stroke-miterlimit="10" transform="rotate(90,1259.5,161)" pointer-events="none"/><path d="M 1101 488 L 1161 508 L 1101 528 L 1041 508 Z" fill="#5a45e0" stroke="#5f0d78" stroke-width="3" stroke-miterlimit="10" pointer-events="none"/><path d="M 904.5 488 L 964.5 508 L 904.5 528 L 844.5 508 Z" fill="#5a45e0" stroke="#5f0d78" stroke-width="3" stroke-miterlimit="10" pointer-events="none"/><path d="M 707.5 488 L 767.5 508 L 707.5 528 L 647.5 508 Z" fill="#5a45e0" stroke="#5f0d78" stroke-width="3" stroke-miterlimit="10" pointer-events="none"/><path d="M 510.5 488 L 570.5 508 L 510.5 528 L 450.5 508 Z" fill="#5a45e0" stroke="#5f0d78" stroke-width="3" stroke-miterlimit="10" pointer-events="none"/><path d="M 314 488 L 374 508 L 314 528 L 254 508 Z" fill="#5a45e0" stroke="#5f0d78" stroke-width="3" stroke-miterlimit="10" pointer-events="none"/><path d="M 1101 681 L 1161 701 L 1101 721 L 1041 701 Z" fill="#5a45e0" stroke="#5f0d78" stroke-width="3" stroke-miterlimit="10" pointer-events="none"/><path d="M 904.5 681 L 964.5 701 L 904.5 721 L 844.5 701 Z" fill="#5a45e0" stroke="#5f0d78" stroke-width="3" stroke-miterlimit="10" pointer-events="none"/><path d="M 707.5 681 L 767.5 701 L 707.5 721 L 647.5 701 Z" fill="#5a45e0" stroke="#5f0d78" stroke-width="3" stroke-miterlimit="10" pointer-events="none"/><path d="M 510.5 681 L 570.5 701 L 510.5 721 L 450.5 701 Z" fill="#5a45e0" stroke="#5f0d78" stroke-width="3" stroke-miterlimit="10" pointer-events="none"/><path d="M 314 681 L 374 701 L 314 721 L 254 701 Z" fill="#5a45e0" stroke="#5f0d78" stroke-width="3" stroke-miterlimit="10" pointer-events="none"/><path d="M 1198.5 584 L 1258.5 604 L 1198.5 624 L 1138.5 604 Z" fill="#5a45e0" stroke="#5f0d78" stroke-width="3" stroke-miterlimit="10" pointer-events="none"/><path d="M 1001.5 584 L 1061.5 604 L 1001.5 624 L 941.5 604 Z" fill="#5a45e0" stroke="#5f0d78" stroke-width="3" stroke-miterlimit="10" pointer-events="none"/><path d="M 804.5 584 L 864.5 604 L 804.5 624 L 744.5 604 Z" fill="#5a45e0" stroke="#5f0d78" stroke-width="3" stroke-miterlimit="10" pointer-events="none"/><path d="M 608.5 584 L 668.5 604 L 608.5 624 L 548.5 604 Z" fill="#5a45e0" stroke="#5f0d78" stroke-width="3" stroke-miterlimit="10" pointer-events="none"/><path d="M 411.5 584 L 471.5 604 L 411.5 624 L 351.5 604 Z" fill="#5a45e0" stroke="#5f0d78" stroke-width="3" stroke-miterlimit="10" pointer-events="none"/><path d="M 214.5 584 L 274.5 604 L 214.5 624 L 154.5 604 Z" fill="#5a45e0" stroke="#5f0d78" stroke-width="3" stroke-miterlimit="10" pointer-events="none"/></g></svg>