<?xml version="1.0" encoding="UTF-8"?>
<!DOCTYPE svg PUBLIC "-//W3C//DTD SVG 1.1//EN" "http://www.w3.org/Graphics/SVG/1.1/DTD/svg11.dtd">
<svg xmlns="http://www.w3.org/2000/svg" xmlns:xlink="http://www.w3.org/1999/xlink" version="1.1" width="1408px" height="1574px" viewBox="-0.5 -0.5 1408 1574"><defs/><g><rect x="30" y="6" width="1350" height="300" fill="#404040" stroke="#8a8a8a" stroke-width="3" pointer-events="all"/><rect x="30" y="6" width="1350" height="300" fill="#404040" stroke="#8a8a8a" stroke-width="3" pointer-events="all"/><rect x="30" y="306" width="1350" height="525" fill="#190e78" stroke="#2800f2" stroke-width="4" pointer-events="all"/><path d="M 1257.5 136 L 1317.5 156 L 1257.5 176 L 1197.5 156 Z" fill="#5a45e0" stroke="#5f0d78" stroke-width="3" stroke-miterlimit="10" transform="rotate(90,1257.5,156)" pointer-events="all"/><path d="M 1119.5 136 L 1179.5 156 L 1119.5 176 L 1059.5 156 Z" fill="#5a45e0" stroke="#5f0d78" stroke-width="3" stroke-miterlimit="10" transform="rotate(90,1119.5,156)" pointer-events="all"/><path d="M 981.5 136 L 1041.5 156 L 981.5 176 L 921.5 156 Z" fill="#5a45e0" stroke="#5f0d78" stroke-width="3" stroke-miterlimit="10" transform="rotate(90,981.5,156)" pointer-events="all"/><path d="M 843.5 136 L 903.5 156 L 843.5 176 L 783.5 156 Z" fill="#5a45e0" stroke="#5f0d78" stroke-width="3" stroke-miterlimit="10" transform="rotate(90,843.5,156)" pointer-events="all"/><path d="M 704.5 136 L 764.5 156 L 704.5 176 L 644.5 156 Z" fill="#5a45e0" stroke="#5f0d78" stroke-width="3" stroke-miterlimit="10" transform="rotate(90,704.5,156)" pointer-events="all"/><path d="M 566.5 136 L 626.5 156 L 566.5 176 L 506.5 156 Z" fill="#5a45e0" stroke="#5f0d78" stroke-width="3" stroke-miterlimit="10" transform="rotate(90,566.5,156)" pointer-events="all"/><path d="M 428.5 136 L 488.5 156 L 428.5 176 L 368.5 156 Z" fill="#5a45e0" stroke="#5f0d78" stroke-width="3" stroke-miterlimit="10" transform="rotate(90,428.5,156)" pointer-events="all"/><path d="M 290.5 136 L 350.5 156 L 290.5 176 L 230.5 156 Z" fill="#5a45e0" stroke="#5f0d78" stroke-width="3" stroke-miterlimit="10" transform="rotate(90,290.5,156)" pointer-events="all"/><path d="M 152.5 136 L 212.5 156 L 152.5 176 L 92.5 156 Z" fill="#5a45e0" stroke="#5f0d78" stroke-width="3" stroke-miterlimit="10" transform="rotate(90,152.5,156)" pointer-events="all"/><path d="M 311 483 L 371 503 L 311 523 L 251 503 Z" fill="#5a45e0" stroke="#5f0d78" stroke-width="3" stroke-miterlimit="10" pointer-events="all"/><path d="M 507.5 483 L 567.5 503 L 507.5 523 L 447.5 503 Z" fill="#5a45e0" stroke="#5f0d78" stroke-width="3" stroke-miterlimit="10" pointer-events="all"/><path d="M 704.5 483 L 764.5 503 L 704.5 523 L 644.5 503 Z" fill="#5a45e0" stroke="#5f0d78" stroke-width="3" stroke-miterlimit="10" pointer-events="all"/><path d="M 901.5 483 L 961.5 503 L 901.5 523 L 841.5 503 Z" fill="#5a45e0" stroke="#5f0d78" stroke-width="3" stroke-miterlimit="10" pointer-events="all"/><path d="M 1098 483 L 1158 503 L 1098 523 L 1038 503 Z" fill="#5a45e0" stroke="#5f0d78" stroke-width="3" stroke-miterlimit="10" pointer-events="all"/><path d="M 311 676 L 371 696 L 311 716 L 251 696 Z" fill="#5a45e0" stroke="#5f0d78" stroke-width="3" stroke-miterlimit="10" pointer-events="all"/><path d="M 507.5 676 L 567.5 696 L 507.5 716 L 447.5 696 Z" fill="#5a45e0" stroke="#5f0d78" stroke-width="3" stroke-miterlimit="10" pointer-events="all"/><path d="M 704.5 676 L 764.5 696 L 704.5 716 L 644.5 696 Z" fill="#5a45e0" stroke="#5f0d78" stroke-width="3" stroke-miterlimit="10" pointer-events="all"/><path d="M 901.5 676 L 961.5 696 L 901.5 716 L 841.5 696 Z" fill="#5a45e0" stroke="#5f0d78" stroke-width="3" stroke-miterlimit="10" pointer-events="all"/><rect x="30" y="306" width="1350" height="525" fill="#190e78" stroke="#2800f2" stroke-width="4" pointer-events="all"/><path d="M 1098 676 L 1158 696 L 1098 716 L 1038 696 Z" fill="#5a45e0" stroke="#5f0d78" stroke-width="3" stroke-miterlimit="10" pointer-events="all"/><path d="M 213.5 579 L 273.5 599 L 213.5 619 L 153.5 599 Z" fill="#5a45e0" stroke="#5f0d78" stroke-width="3" stroke-miterlimit="10" pointer-events="all"/><path d="M 410.5 579 L 470.5 599 L 410.5 619 L 350.5 599 Z" fill="#5a45e0" stroke="#5f0d78" stroke-width="3" stroke-miterlimit="10" pointer-events="all"/><path d="M 607.5 579 L 667.5 599 L 607.5 619 L 547.5 599 Z" fill="#5a45e0" stroke="#5f0d78" stroke-width="3" stroke-miterlimit="10" pointer-events="all"/><path d="M 803.5 579 L 863.5 599 L 803.5 619 L 743.5 599 Z" fill="#5a45e0" stroke="#5f0d78" stroke-width="3" stroke-miterlimit="10" pointer-events="all"/><path d="M 1000.5 579 L 1060.5 599 L 1000.5 619 L 940.5 599 Z" fill="#5a45e0" stroke="#5f0d78" stroke-width="3" stroke-miterlimit="10" pointer-events="all"/><path d="M 1197.5 579 L 1257.5 599 L 1197.5 619 L 1137.5 599 Z" fill="#5a45e0" stroke="#5f0d78" stroke-width="3" stroke-miterlimit="10" pointer-events="all"/><rect x="1102.5" y="966" width="300" height="600" fill="none" stroke="none" transform="translate(1252.5,0)scale(-1,1)translate(-1252.5,0)" pointer-events="all"/><rect x="1102.5" y="966" width="170" height="600" fill="none" stroke="none" transform="translate(1187.5,0)scale(-1,1)translate(-1187.5,0)" pointer-events="all"/><rect x="1272.5" y="966" width="130" height="160" fill="none" stroke="none" transform="translate(1337.5,0)scale(-1,1)translate(-1337.5,0)" pointer-events="all"/><rect x="1272.5" y="1186" width="130" height="160" fill="none" stroke="none" transform="translate(1337.5,0)scale(-1,1)translate(-1337.5,0)" pointer-events="all"/><rect x="1272.5" y="1406" width="130" height="160" fill="none" stroke="none" transform="translate(1337.5,0)scale(-1,1)translate(-1337.5,0)" pointer-events="all"/><rect x="7.5" y="966" width="300" height="600" fill="#404040" stroke="#ffffff" stroke-width="5" pointer-events="all"/><rect x="7.5" y="966" width="300" height="600" fill="#404040" stroke="#ffffff" stroke-width="5" transform="translate(157.5,0)scale(-1,1)translate(-157.5,0)" pointer-events="all"/><rect x="137.5" y="966" width="170" height="600" fill="#404040" stroke="#ffffff" stroke-width="5" transform="translate(222.5,0)scale(-1,1)translate(-222.5,0)" pointer-events="all"/><rect x="7.5" y="966" width="130" height="160" fill="#404040" stroke="#ffffff" stroke-width="5" transform="translate(72.5,0)scale(-1,1)translate(-72.5,0)" pointer-events="all"/><rect x="7.5" y="1186" width="130" height="160" fill="#404040" stroke="#ffffff" stroke-width="5" transform="translate(72.5,0)scale(-1,1)translate(-72.5,0)" pointer-events="all"/><rect x="7.5" y="1406" width="130" height="160" fill="#404040" stroke="#ffffff" stroke-width="5" transform="translate(72.5,0)scale(-1,1)translate(-72.5,0)" pointer-events="all"/><path d="M 152.5 136 L 212.5 156 L 152.5 176 L 92.5 156 Z" fill="#5a45e0" stroke="#5f0d78" stroke-width="3" stroke-miterlimit="10" transform="rotate(90,152.5,156)" pointer-events="all"/><path d="M 290.5 136 L 350.5 156 L 290.5 176 L 230.5 156 Z" fill="#5a45e0" stroke="#5f0d78" stroke-width="3" stroke-miterlimit="10" transform="rotate(90,290.5,156)" pointer-events="all"/><path d="M 428.5 136 L 488.5 156 L 428.5 176 L 368.5 156 Z" fill="#5a45e0" stroke="#5f0d78" stroke-width="3" stroke-miterlimit="10" transform="rotate(90,428.5,156)" pointer-events="all"/><path d="M 566.5 136 L 626.5 156 L 566.5 176 L 506.5 156 Z" fill="#5a45e0" stroke="#5f0d78" stroke-width="3" stroke-miterlimit="10" transform="rotate(90,566.5,156)" pointer-events="all"/><path d="M 705.5 136 L 765.5 156 L 705.5 176 L 645.5 156 Z" fill="#5a45e0" stroke="#5f0d78" stroke-width="3" stroke-miterlimit="10" transform="rotate(90,705.5,156)" pointer-events="all"/><path d="M 843.5 136 L 903.5 156 L 843.5 176 L 783.5 156 Z" fill="#5a45e0" stroke="#5f0d78" stroke-width="3" stroke-miterlimit="10" transform="rotate(90,843.5,156)" pointer-events="all"/><path d="M 981.5 136 L 1041.5 156 L 981.5 176 L 921.5 156 Z" fill="#5a45e0" stroke="#5f0d78" stroke-width="3" stroke-miterlimit="10" transform="rotate(90,981.5,156)" pointer-events="all"/><path d="M 1119.5 136 L 1179.5 156 L 1119.5 176 L 1059.5 156 Z" fill="#5a45e0" stroke="#5f0d78" stroke-width="3" stroke-miterlimit="10" transform="rotate(90,1119.5,156)" pointer-events="all"/><path d="M 1257.5 136 L 1317.5 156 L 1257.5 176 L 1197.5 156 Z" fill="#5a45e0" stroke="#5f0d78" stroke-width="3" stroke-miterlimit="10" transform="rotate(90,1257.5,156)" pointer-events="all"/><path d="M 1099 483 L 1159 503 L 1099 523 L 1039 503 Z" fill="#5a45e0" stroke="#5f0d78" stroke-width="3" stroke-miterlimit="10" pointer-events="all"/><path d="M 902.5 483 L 962.5 503 L 902.5 523 L 842.5 503 Z" fill="#5a45e0" stroke="#5f0d78" stroke-width="3" stroke-miterlimit="10" pointer-events="all"/><path d="M 705.5 483 L 765.5 503 L 705.5 523 L 645.5 503 Z" fill="#5a45e0" stroke="#5f0d78" stroke-width="3" stroke-miterlimit="10" pointer-events="all"/><path d="M 508.5 483 L 568.5 503 L 508.5 523 L 448.5 503 Z" fill="#5a45e0" stroke="#5f0d78" stroke-width="3" stroke-miterlimit="10" pointer-events="all"/><path d="M 312 483 L 372 503 L 312 523 L 252 503 Z" fill="#5a45e0" stroke="#5f0d78" stroke-width="3" stroke-miterlimit="10" pointer-events="all"/><path d="M 1099 676 L 1159 696 L 1099 716 L 1039 696 Z" fill="#5a45e0" stroke="#5f0d78" stroke-width="3" stroke-miterlimit="10" pointer-events="all"/><path d="M 902.5 676 L 962.5 696 L 902.5 716 L 842.5 696 Z" fill="#5a45e0" stroke="#5f0d78" stroke-width="3" stroke-miterlimit="10" pointer-events="all"/><path d="M 705.5 676 L 765.5 696 L 705.5 716 L 645.5 696 Z" fill="#5a45e0" stroke="#5f0d78" stroke-width="3" stroke-miterlimit="10" pointer-events="all"/><path d="M 508.5 676 L 568.5 696 L 508.5 716 L 448.5 696 Z" fill="#5a45e0" stroke="#5f0d78" stroke-width="3" stroke-miterlimit="10" pointer-events="all"/><path d="M 312 676 L 372 696 L 312 716 L 252 696 Z" fill="#5a45e0" stroke="#5f0d78" stroke-width="3" stroke-miterlimit="10" pointer-events="all"/><path d="M 1196.5 579 L 1256.5 599 L 1196.5 619 L 1136.5 599 Z" fill="#5a45e0" stroke="#5f0d78" stroke-width="3" stroke-miterlimit="10" pointer-events="all"/><path d="M 999.5 579 L 1059.5 599 L 999.5 619 L 939.5 599 Z" fill="#5a45e0" stroke="#5f0d78" stroke-width="3" stroke-miterlimit="10" pointer-events="all"/><path d="M 802.5 579 L 862.5 599 L 802.5 619 L 742.5 599 Z" fill="#5a45e0" stroke="#5f0d78" stroke-width="3" stroke-miterlimit="10" pointer-events="all"/><path d="M 606.5 579 L 666.5 599 L 606.5 619 L 546.5 599 Z" fill="#5a45e0" stroke="#5f0d78" stroke-width="3" stroke-miterlimit="10" pointer-events="all"/><path d="M 409.5 579 L 469.5 599 L 409.5 619 L 349.5 599 Z" fill="#5a45e0" stroke="#5f0d78" stroke-width="3" stroke-miterlimit="10" pointer-events="all"/><path d="M 212.5 579 L 272.5 599 L 212.5 619 L 152.5 599 Z" fill="#5a45e0" stroke="#5f0d78" stroke-width="3" stroke-miterlimit="10" pointer-events="all"/></g></svg>