<?xml version="1.0" encoding="UTF-8"?>
<!DOCTYPE svg PUBLIC "-//W3C//DTD SVG 1.1//EN" "http://www.w3.org/Graphics/SVG/1.1/DTD/svg11.dtd">
<svg xmlns="http://www.w3.org/2000/svg" xmlns:xlink="http://www.w3.org/1999/xlink" version="1.1" width="1418px" height="1584px" viewBox="-0.5 -0.5 1418 1584"><defs/><g><rect x="35" y="11" width="1350" height="300" fill="#404040" stroke="#8a8a8a" stroke-width="3" pointer-events="all"/><rect x="35" y="311" width="1350" height="525" fill="#190e78" stroke="#2800f2" stroke-width="4" pointer-events="all"/><path d="M 1262.5 141 L 1322.5 161 L 1262.5 181 L 1202.5 161 Z" fill="#5a45e0" stroke="#5f0d78" stroke-width="3" stroke-miterlimit="10" transform="rotate(90,1262.5,161)" pointer-events="all"/><path d="M 1124.5 141 L 1184.5 161 L 1124.5 181 L 1064.5 161 Z" fill="#5a45e0" stroke="#5f0d78" stroke-width="3" stroke-miterlimit="10" transform="rotate(90,1124.5,161)" pointer-events="all"/><path d="M 986.5 141 L 1046.5 161 L 986.5 181 L 926.5 161 Z" fill="#5a45e0" stroke="#5f0d78" stroke-width="3" stroke-miterlimit="10" transform="rotate(90,986.5,161)" pointer-events="all"/><path d="M 848.5 141 L 908.5 161 L 848.5 181 L 788.5 161 Z" fill="#5a45e0" stroke="#5f0d78" stroke-width="3" stroke-miterlimit="10" transform="rotate(90,848.5,161)" pointer-events="all"/><path d="M 709.5 141 L 769.5 161 L 709.5 181 L 649.5 161 Z" fill="#5a45e0" stroke="#5f0d78" stroke-width="3" stroke-miterlimit="10" transform="rotate(90,709.5,161)" pointer-events="all"/><path d="M 571.5 141 L 631.5 161 L 571.5 181 L 511.5 161 Z" fill="#5a45e0" stroke="#5f0d78" stroke-width="3" stroke-miterlimit="10" transform="rotate(90,571.5,161)" pointer-events="all"/><path d="M 433.5 141 L 493.5 161 L 433.5 181 L 373.5 161 Z" fill="#5a45e0" stroke="#5f0d78" stroke-width="3" stroke-miterlimit="10" transform="rotate(90,433.5,161)" pointer-events="all"/><path d="M 295.5 141 L 355.5 161 L 295.5 181 L 235.5 161 Z" fill="#5a45e0" stroke="#5f0d78" stroke-width="3" stroke-miterlimit="10" transform="rotate(90,295.5,161)" pointer-events="all"/><path d="M 157.5 141 L 217.5 161 L 157.5 181 L 97.5 161 Z" fill="#5a45e0" stroke="#5f0d78" stroke-width="3" stroke-miterlimit="10" transform="rotate(90,157.5,161)" pointer-events="all"/><path d="M 316 488 L 376 508 L 316 528 L 256 508 Z" fill="#5a45e0" stroke="#5f0d78" stroke-width="3" stroke-miterlimit="10" pointer-events="all"/><path d="M 512.5 488 L 572.5 508 L 512.5 528 L 452.5 508 Z" fill="#5a45e0" stroke="#5f0d78" stroke-width="3" stroke-miterlimit="10" pointer-events="all"/><path d="M 709.5 488 L 769.5 508 L 709.5 528 L 649.5 508 Z" fill="#5a45e0" stroke="#5f0d78" stroke-width="3" stroke-miterlimit="10" pointer-events="all"/><path d="M 906.5 488 L 966.5 508 L 906.5 528 L 846.5 508 Z" fill="#5a45e0" stroke="#5f0d78" stroke-width="3" stroke-miterlimit="10" pointer-events="all"/><path d="M 1103 488 L 1163 508 L 1103 528 L 1043 508 Z" fill="#5a45e0" stroke="#5f0d78" stroke-width="3" stroke-miterlimit="10" pointer-events="all"/><path d="M 316 681 L 376 701 L 316 721 L 256 701 Z" fill="#5a45e0" stroke="#5f0d78" stroke-width="3" stroke-miterlimit="10" pointer-events="all"/><path d="M 512.5 681 L 572.5 701 L 512.5 721 L 452.5 701 Z" fill="#5a45e0" stroke="#5f0d78" stroke-width="3" stroke-miterlimit="10" pointer-events="all"/><path d="M 709.5 681 L 769.5 701 L 709.5 721 L 649.5 701 Z" fill="#5a45e0" stroke="#5f0d78" stroke-width="3" stroke-miterlimit="10" pointer-events="all"/><path d="M 906.5 681 L 966.5 701 L 906.5 721 L 846.5 701 Z" fill="#5a45e0" stroke="#5f0d78" stroke-width="3" stroke-miterlimit="10" pointer-events="all"/><path d="M 1103 681 L 1163 701 L 1103 721 L 1043 701 Z" fill="#5a45e0" stroke="#5f0d78" stroke-width="3" stroke-miterlimit="10" pointer-events="all"/><path d="M 218.5 584 L 278.5 604 L 218.5 624 L 158.5 604 Z" fill="#5a45e0" stroke="#5f0d78" stroke-width="3" stroke-miterlimit="10" pointer-events="all"/><path d="M 415.5 584 L 475.5 604 L 415.5 624 L 355.5 604 Z" fill="#5a45e0" stroke="#5f0d78" stroke-width="3" stroke-miterlimit="10" pointer-events="all"/><path d="M 612.5 584 L 672.5 604 L 612.5 624 L 552.5 604 Z" fill="#5a45e0" stroke="#5f0d78" stroke-width="3" stroke-miterlimit="10" pointer-events="all"/><path d="M 808.5 584 L 868.5 604 L 808.5 624 L 748.5 604 Z" fill="#5a45e0" stroke="#5f0d78" stroke-width="3" stroke-miterlimit="10" pointer-events="all"/><path d="M 1005.5 584 L 1065.5 604 L 1005.5 624 L 945.5 604 Z" fill="#5a45e0" stroke="#5f0d78" stroke-width="3" stroke-miterlimit="10" pointer-events="all"/><path d="M 1202.5 584 L 1262.5 604 L 1202.5 624 L 1142.5 604 Z" fill="#5a45e0" stroke="#5f0d78" stroke-width="3" stroke-miterlimit="10" pointer-events="all"/><rect x="1107.5" y="971" width="300" height="600" fill="none" stroke="none" transform="translate(1257.5,0)scale(-1,1)translate(-1257.5,0)" pointer-events="all"/><rect x="1107.5" y="971" width="170" height="600" fill="none" stroke="none" transform="translate(1192.5,0)scale(-1,1)translate(-1192.5,0)" pointer-events="all"/><rect x="1277.5" y="971" width="130" height="160" fill="none" stroke="none" transform="translate(1342.5,0)scale(-1,1)translate(-1342.5,0)" pointer-events="all"/><rect x="1277.5" y="1191" width="130" height="160" fill="none" stroke="none" transform="translate(1342.5,0)scale(-1,1)translate(-1342.5,0)" pointer-events="all"/><rect x="1277.5" y="1411" width="130" height="160" fill="none" stroke="none" transform="translate(1342.5,0)scale(-1,1)translate(-1342.5,0)" pointer-events="all"/><rect x="35" y="11" width="1350" height="300" fill="#404040" stroke="#8a8a8a" stroke-width="3" pointer-events="all"/><rect x="35" y="311" width="1350" height="525" fill="#990b06" stroke="#bd0e08" stroke-width="4" pointer-events="all"/><rect x="12.5" y="971" width="300" height="600" fill="#404040" stroke="#ffffff" stroke-width="5" pointer-events="all"/><rect x="12.5" y="971" width="300" height="600" fill="#404040" stroke="#ffffff" stroke-width="5" transform="translate(162.5,0)scale(-1,1)translate(-162.5,0)" pointer-events="all"/><rect x="142.5" y="971" width="170" height="600" fill="#404040" stroke="#ffffff" stroke-width="5" transform="translate(227.5,0)scale(-1,1)translate(-227.5,0)" pointer-events="all"/><rect x="12.5" y="971" width="130" height="160" fill="#404040" stroke="#ffffff" stroke-width="5" transform="translate(77.5,0)scale(-1,1)translate(-77.5,0)" pointer-events="all"/><rect x="12.5" y="1191" width="130" height="160" fill="#404040" stroke="#ffffff" stroke-width="5" transform="translate(77.5,0)scale(-1,1)translate(-77.5,0)" pointer-events="all"/><rect x="12.5" y="1411" width="130" height="160" fill="#404040" stroke="#ffffff" stroke-width="5" transform="translate(77.5,0)scale(-1,1)translate(-77.5,0)" pointer-events="all"/><path d="M 157.5 141 L 217.5 161 L 157.5 181 L 97.5 161 Z" fill="#5a45e0" stroke="#5f0d78" stroke-width="3" stroke-miterlimit="10" transform="rotate(90,157.5,161)" pointer-events="all"/><path d="M 295.5 141 L 355.5 161 L 295.5 181 L 235.5 161 Z" fill="#5a45e0" stroke="#5f0d78" stroke-width="3" stroke-miterlimit="10" transform="rotate(90,295.5,161)" pointer-events="all"/><path d="M 433.5 141 L 493.5 161 L 433.5 181 L 373.5 161 Z" fill="#5a45e0" stroke="#5f0d78" stroke-width="3" stroke-miterlimit="10" transform="rotate(90,433.5,161)" pointer-events="all"/><path d="M 571.5 141 L 631.5 161 L 571.5 181 L 511.5 161 Z" fill="#5a45e0" stroke="#5f0d78" stroke-width="3" stroke-miterlimit="10" transform="rotate(90,571.5,161)" pointer-events="all"/><path d="M 710.5 141 L 770.5 161 L 710.5 181 L 650.5 161 Z" fill="#5a45e0" stroke="#5f0d78" stroke-width="3" stroke-miterlimit="10" transform="rotate(90,710.5,161)" pointer-events="all"/><path d="M 848.5 141 L 908.5 161 L 848.5 181 L 788.5 161 Z" fill="#5a45e0" stroke="#5f0d78" stroke-width="3" stroke-miterlimit="10" transform="rotate(90,848.5,161)" pointer-events="all"/><path d="M 986.5 141 L 1046.5 161 L 986.5 181 L 926.5 161 Z" fill="#5a45e0" stroke="#5f0d78" stroke-width="3" stroke-miterlimit="10" transform="rotate(90,986.5,161)" pointer-events="all"/><path d="M 1124.5 141 L 1184.5 161 L 1124.5 181 L 1064.5 161 Z" fill="#5a45e0" stroke="#5f0d78" stroke-width="3" stroke-miterlimit="10" transform="rotate(90,1124.5,161)" pointer-events="all"/><path d="M 1262.5 141 L 1322.5 161 L 1262.5 181 L 1202.5 161 Z" fill="#5a45e0" stroke="#5f0d78" stroke-width="3" stroke-miterlimit="10" transform="rotate(90,1262.5,161)" pointer-events="all"/><path d="M 1104 488 L 1164 508 L 1104 528 L 1044 508 Z" fill="#5a45e0" stroke="#5f0d78" stroke-width="3" stroke-miterlimit="10" pointer-events="all"/><path d="M 907.5 488 L 967.5 508 L 907.5 528 L 847.5 508 Z" fill="#5a45e0" stroke="#5f0d78" stroke-width="3" stroke-miterlimit="10" pointer-events="all"/><path d="M 710.5 488 L 770.5 508 L 710.5 528 L 650.5 508 Z" fill="#5a45e0" stroke="#5f0d78" stroke-width="3" stroke-miterlimit="10" pointer-events="all"/><path d="M 513.5 488 L 573.5 508 L 513.5 528 L 453.5 508 Z" fill="#5a45e0" stroke="#5f0d78" stroke-width="3" stroke-miterlimit="10" pointer-events="all"/><path d="M 317 488 L 377 508 L 317 528 L 257 508 Z" fill="#5a45e0" stroke="#5f0d78" stroke-width="3" stroke-miterlimit="10" pointer-events="all"/><path d="M 1104 681 L 1164 701 L 1104 721 L 1044 701 Z" fill="#5a45e0" stroke="#5f0d78" stroke-width="3" stroke-miterlimit="10" pointer-events="all"/><path d="M 907.5 681 L 967.5 701 L 907.5 721 L 847.5 701 Z" fill="#5a45e0" stroke="#5f0d78" stroke-width="3" stroke-miterlimit="10" pointer-events="all"/><path d="M 710.5 681 L 770.5 701 L 710.5 721 L 650.5 701 Z" fill="#5a45e0" stroke="#5f0d78" stroke-width="3" stroke-miterlimit="10" pointer-events="all"/><path d="M 513.5 681 L 573.5 701 L 513.5 721 L 453.5 701 Z" fill="#5a45e0" stroke="#5f0d78" stroke-width="3" stroke-miterlimit="10" pointer-events="all"/><path d="M 317 681 L 377 701 L 317 721 L 257 701 Z" fill="#5a45e0" stroke="#5f0d78" stroke-width="3" stroke-miterlimit="10" pointer-events="all"/><path d="M 1201.5 584 L 1261.5 604 L 1201.5 624 L 1141.5 604 Z" fill="#5a45e0" stroke="#5f0d78" stroke-width="3" stroke-miterlimit="10" pointer-events="all"/><path d="M 1004.5 584 L 1064.5 604 L 1004.5 624 L 944.5 604 Z" fill="#5a45e0" stroke="#5f0d78" stroke-width="3" stroke-miterlimit="10" pointer-events="all"/><path d="M 807.5 584 L 867.5 604 L 807.5 624 L 747.5 604 Z" fill="#5a45e0" stroke="#5f0d78" stroke-width="3" stroke-miterlimit="10" pointer-events="all"/><path d="M 611.5 584 L 671.5 604 L 611.5 624 L 551.5 604 Z" fill="#5a45e0" stroke="#5f0d78" stroke-width="3" stroke-miterlimit="10" pointer-events="all"/><path d="M 414.5 584 L 474.5 604 L 414.5 624 L 354.5 604 Z" fill="#5a45e0" stroke="#5f0d78" stroke-width="3" stroke-miterlimit="10" pointer-events="all"/><path d="M 217.5 584 L 277.5 604 L 217.5 624 L 157.5 604 Z" fill="#5a45e0" stroke="#5f0d78" stroke-width="3" stroke-miterlimit="10" pointer-events="all"/></g></svg>