<?xml version="1.0" encoding="UTF-8"?>
<!DOCTYPE svg PUBLIC "-//W3C//DTD SVG 1.1//EN" "http://www.w3.org/Graphics/SVG/1.1/DTD/svg11.dtd">
<svg xmlns="http://www.w3.org/2000/svg" xmlns:xlink="http://www.w3.org/1999/xlink" version="1.1" width="1408px" height="1574px" viewBox="-0.5 -0.5 1408 1574"><defs/><g><rect x="27" y="6" width="1350" height="300" fill="#404040" stroke="#8a8a8a" stroke-width="3" pointer-events="all"/><rect x="27" y="306" width="1350" height="525" fill="#990b06" stroke="#bd0e08" stroke-width="4" pointer-events="all"/><rect x="27" y="6" width="1350" height="300" fill="#404040" stroke="#8a8a8a" stroke-width="3" pointer-events="all"/><path d="M 1254.5 136 L 1314.5 156 L 1254.5 176 L 1194.5 156 Z" fill="#5a45e0" stroke="#5f0d78" stroke-width="3" stroke-miterlimit="10" transform="rotate(90,1254.5,156)" pointer-events="all"/><path d="M 1116.5 136 L 1176.5 156 L 1116.5 176 L 1056.5 156 Z" fill="#5a45e0" stroke="#5f0d78" stroke-width="3" stroke-miterlimit="10" transform="rotate(90,1116.5,156)" pointer-events="all"/><path d="M 978.5 136 L 1038.5 156 L 978.5 176 L 918.5 156 Z" fill="#5a45e0" stroke="#5f0d78" stroke-width="3" stroke-miterlimit="10" transform="rotate(90,978.5,156)" pointer-events="all"/><path d="M 840.5 136 L 900.5 156 L 840.5 176 L 780.5 156 Z" fill="#5a45e0" stroke="#5f0d78" stroke-width="3" stroke-miterlimit="10" transform="rotate(90,840.5,156)" pointer-events="all"/><path d="M 701.5 136 L 761.5 156 L 701.5 176 L 641.5 156 Z" fill="#5a45e0" stroke="#5f0d78" stroke-width="3" stroke-miterlimit="10" transform="rotate(90,701.5,156)" pointer-events="all"/><path d="M 563.5 136 L 623.5 156 L 563.5 176 L 503.5 156 Z" fill="#5a45e0" stroke="#5f0d78" stroke-width="3" stroke-miterlimit="10" transform="rotate(90,563.5,156)" pointer-events="all"/><path d="M 425.5 136 L 485.5 156 L 425.5 176 L 365.5 156 Z" fill="#5a45e0" stroke="#5f0d78" stroke-width="3" stroke-miterlimit="10" transform="rotate(90,425.5,156)" pointer-events="all"/><path d="M 287.5 136 L 347.5 156 L 287.5 176 L 227.5 156 Z" fill="#5a45e0" stroke="#5f0d78" stroke-width="3" stroke-miterlimit="10" transform="rotate(90,287.5,156)" pointer-events="all"/><path d="M 149.5 136 L 209.5 156 L 149.5 176 L 89.5 156 Z" fill="#5a45e0" stroke="#5f0d78" stroke-width="3" stroke-miterlimit="10" transform="rotate(90,149.5,156)" pointer-events="all"/><path d="M 308 483 L 368 503 L 308 523 L 248 503 Z" fill="#5a45e0" stroke="#5f0d78" stroke-width="3" stroke-miterlimit="10" pointer-events="all"/><path d="M 504.5 483 L 564.5 503 L 504.5 523 L 444.5 503 Z" fill="#5a45e0" stroke="#5f0d78" stroke-width="3" stroke-miterlimit="10" pointer-events="all"/><path d="M 701.5 483 L 761.5 503 L 701.5 523 L 641.5 503 Z" fill="#5a45e0" stroke="#5f0d78" stroke-width="3" stroke-miterlimit="10" pointer-events="all"/><path d="M 898.5 483 L 958.5 503 L 898.5 523 L 838.5 503 Z" fill="#5a45e0" stroke="#5f0d78" stroke-width="3" stroke-miterlimit="10" pointer-events="all"/><path d="M 1095 483 L 1155 503 L 1095 523 L 1035 503 Z" fill="#5a45e0" stroke="#5f0d78" stroke-width="3" stroke-miterlimit="10" pointer-events="all"/><path d="M 308 676 L 368 696 L 308 716 L 248 696 Z" fill="#5a45e0" stroke="#5f0d78" stroke-width="3" stroke-miterlimit="10" pointer-events="all"/><path d="M 504.5 676 L 564.5 696 L 504.5 716 L 444.5 696 Z" fill="#5a45e0" stroke="#5f0d78" stroke-width="3" stroke-miterlimit="10" pointer-events="all"/><path d="M 701.5 676 L 761.5 696 L 701.5 716 L 641.5 696 Z" fill="#5a45e0" stroke="#5f0d78" stroke-width="3" stroke-miterlimit="10" pointer-events="all"/><path d="M 898.5 676 L 958.5 696 L 898.5 716 L 838.5 696 Z" fill="#5a45e0" stroke="#5f0d78" stroke-width="3" stroke-miterlimit="10" pointer-events="all"/><path d="M 1095 676 L 1155 696 L 1095 716 L 1035 696 Z" fill="#5a45e0" stroke="#5f0d78" stroke-width="3" stroke-miterlimit="10" pointer-events="all"/><path d="M 210.5 579 L 270.5 599 L 210.5 619 L 150.5 599 Z" fill="#5a45e0" stroke="#5f0d78" stroke-width="3" stroke-miterlimit="10" pointer-events="all"/><path d="M 407.5 579 L 467.5 599 L 407.5 619 L 347.5 599 Z" fill="#5a45e0" stroke="#5f0d78" stroke-width="3" stroke-miterlimit="10" pointer-events="all"/><path d="M 604.5 579 L 664.5 599 L 604.5 619 L 544.5 599 Z" fill="#5a45e0" stroke="#5f0d78" stroke-width="3" stroke-miterlimit="10" pointer-events="all"/><path d="M 800.5 579 L 860.5 599 L 800.5 619 L 740.5 599 Z" fill="#5a45e0" stroke="#5f0d78" stroke-width="3" stroke-miterlimit="10" pointer-events="all"/><path d="M 997.5 579 L 1057.5 599 L 997.5 619 L 937.5 599 Z" fill="#5a45e0" stroke="#5f0d78" stroke-width="3" stroke-miterlimit="10" pointer-events="all"/><path d="M 1194.5 579 L 1254.5 599 L 1194.5 619 L 1134.5 599 Z" fill="#5a45e0" stroke="#5f0d78" stroke-width="3" stroke-miterlimit="10" pointer-events="all"/><rect x="1099.5" y="966" width="300" height="600" fill="#404040" stroke="#cccccc" stroke-width="5" transform="translate(1249.5,0)scale(-1,1)translate(-1249.5,0)" pointer-events="all"/><rect x="1099.5" y="966" width="170" height="600" fill="#404040" stroke="#cccccc" stroke-width="5" transform="translate(1184.5,0)scale(-1,1)translate(-1184.5,0)" pointer-events="all"/><rect x="1269.5" y="966" width="130" height="160" fill="#404040" stroke="#cccccc" stroke-width="5" transform="translate(1334.5,0)scale(-1,1)translate(-1334.5,0)" pointer-events="all"/><rect x="1269.5" y="1186" width="130" height="160" fill="#404040" stroke="#cccccc" stroke-width="5" transform="translate(1334.5,0)scale(-1,1)translate(-1334.5,0)" pointer-events="all"/><rect x="1269.5" y="1406" width="130" height="160" fill="#404040" stroke="#cccccc" stroke-width="5" transform="translate(1334.5,0)scale(-1,1)translate(-1334.5,0)" pointer-events="all"/><path d="M 149.5 136 L 209.5 156 L 149.5 176 L 89.5 156 Z" fill="#5a45e0" stroke="#5f0d78" stroke-width="3" stroke-miterlimit="10" transform="rotate(90,149.5,156)" pointer-events="none"/><path d="M 287.5 136 L 347.5 156 L 287.5 176 L 227.5 156 Z" fill="#5a45e0" stroke="#5f0d78" stroke-width="3" stroke-miterlimit="10" transform="rotate(90,287.5,156)" pointer-events="none"/><path d="M 425.5 136 L 485.5 156 L 425.5 176 L 365.5 156 Z" fill="#5a45e0" stroke="#5f0d78" stroke-width="3" stroke-miterlimit="10" transform="rotate(90,425.5,156)" pointer-events="none"/><path d="M 563.5 136 L 623.5 156 L 563.5 176 L 503.5 156 Z" fill="#5a45e0" stroke="#5f0d78" stroke-width="3" stroke-miterlimit="10" transform="rotate(90,563.5,156)" pointer-events="none"/><path d="M 702.5 136 L 762.5 156 L 702.5 176 L 642.5 156 Z" fill="#5a45e0" stroke="#5f0d78" stroke-width="3" stroke-miterlimit="10" transform="rotate(90,702.5,156)" pointer-events="none"/><path d="M 840.5 136 L 900.5 156 L 840.5 176 L 780.5 156 Z" fill="#5a45e0" stroke="#5f0d78" stroke-width="3" stroke-miterlimit="10" transform="rotate(90,840.5,156)" pointer-events="none"/><path d="M 978.5 136 L 1038.5 156 L 978.5 176 L 918.5 156 Z" fill="#5a45e0" stroke="#5f0d78" stroke-width="3" stroke-miterlimit="10" transform="rotate(90,978.5,156)" pointer-events="none"/><path d="M 1116.5 136 L 1176.5 156 L 1116.5 176 L 1056.5 156 Z" fill="#5a45e0" stroke="#5f0d78" stroke-width="3" stroke-miterlimit="10" transform="rotate(90,1116.5,156)" pointer-events="none"/><path d="M 1254.5 136 L 1314.5 156 L 1254.5 176 L 1194.5 156 Z" fill="#5a45e0" stroke="#5f0d78" stroke-width="3" stroke-miterlimit="10" transform="rotate(90,1254.5,156)" pointer-events="none"/><path d="M 1096 483 L 1156 503 L 1096 523 L 1036 503 Z" fill="#5a45e0" stroke="#5f0d78" stroke-width="3" stroke-miterlimit="10" pointer-events="none"/><path d="M 899.5 483 L 959.5 503 L 899.5 523 L 839.5 503 Z" fill="#5a45e0" stroke="#5f0d78" stroke-width="3" stroke-miterlimit="10" pointer-events="none"/><path d="M 702.5 483 L 762.5 503 L 702.5 523 L 642.5 503 Z" fill="#5a45e0" stroke="#5f0d78" stroke-width="3" stroke-miterlimit="10" pointer-events="none"/><path d="M 505.5 483 L 565.5 503 L 505.5 523 L 445.5 503 Z" fill="#5a45e0" stroke="#5f0d78" stroke-width="3" stroke-miterlimit="10" pointer-events="none"/><path d="M 309 483 L 369 503 L 309 523 L 249 503 Z" fill="#5a45e0" stroke="#5f0d78" stroke-width="3" stroke-miterlimit="10" pointer-events="none"/><path d="M 1096 676 L 1156 696 L 1096 716 L 1036 696 Z" fill="#5a45e0" stroke="#5f0d78" stroke-width="3" stroke-miterlimit="10" pointer-events="none"/><path d="M 899.5 676 L 959.5 696 L 899.5 716 L 839.5 696 Z" fill="#5a45e0" stroke="#5f0d78" stroke-width="3" stroke-miterlimit="10" pointer-events="none"/><path d="M 702.5 676 L 762.5 696 L 702.5 716 L 642.5 696 Z" fill="#5a45e0" stroke="#5f0d78" stroke-width="3" stroke-miterlimit="10" pointer-events="none"/><path d="M 505.5 676 L 565.5 696 L 505.5 716 L 445.5 696 Z" fill="#5a45e0" stroke="#5f0d78" stroke-width="3" stroke-miterlimit="10" pointer-events="none"/><path d="M 309 676 L 369 696 L 309 716 L 249 696 Z" fill="#5a45e0" stroke="#5f0d78" stroke-width="3" stroke-miterlimit="10" pointer-events="none"/><path d="M 1193.5 579 L 1253.5 599 L 1193.5 619 L 1133.5 599 Z" fill="#5a45e0" stroke="#5f0d78" stroke-width="3" stroke-miterlimit="10" pointer-events="none"/><path d="M 996.5 579 L 1056.5 599 L 996.5 619 L 936.5 599 Z" fill="#5a45e0" stroke="#5f0d78" stroke-width="3" stroke-miterlimit="10" pointer-events="none"/><path d="M 799.5 579 L 859.5 599 L 799.5 619 L 739.5 599 Z" fill="#5a45e0" stroke="#5f0d78" stroke-width="3" stroke-miterlimit="10" pointer-events="none"/><path d="M 603.5 579 L 663.5 599 L 603.5 619 L 543.5 599 Z" fill="#5a45e0" stroke="#5f0d78" stroke-width="3" stroke-miterlimit="10" pointer-events="none"/><path d="M 406.5 579 L 466.5 599 L 406.5 619 L 346.5 599 Z" fill="#5a45e0" stroke="#5f0d78" stroke-width="3" stroke-miterlimit="10" pointer-events="none"/><path d="M 209.5 579 L 269.5 599 L 209.5 619 L 149.5 599 Z" fill="#5a45e0" stroke="#5f0d78" stroke-width="3" stroke-miterlimit="10" pointer-events="none"/></g></svg>